<svg width="221" height="173" viewBox="0 0 221 173" fill="none" xmlns="http://www.w3.org/2000/svg">
<path d="M90.7223 0.5H132.087C135.101 0.5 137.263 3.40572 136.397 6.29295L128.735 31.8367C128.164 33.7402 126.412 35.0438 124.424 35.0438H98.8848C96.9272 35.0438 95.1942 33.7782 94.5983 31.9135L86.4358 6.36974C85.5081 3.4664 87.6743 0.5 90.7223 0.5Z" fill="#B84046" stroke="white"/>
<path d="M146.508 8.70319L178.008 26.8898C180.619 28.397 181.038 31.9944 178.845 34.0618L161.891 50.0396C160.444 51.4025 158.275 51.6555 156.554 50.6618L137.026 39.3872C135.331 38.4085 134.463 36.4459 134.879 34.5331L139.861 11.6433C140.509 8.66506 143.869 7.17921 146.508 8.70319Z" fill="#B84046" stroke="white"/>
<path d="M44.0101 26.8263L75.5102 8.63964C78.1207 7.13247 81.4459 8.5679 82.1395 11.5014L87.4997 34.1728C87.957 36.1067 87.0915 38.1116 85.3704 39.1053L65.8423 50.3799C64.147 51.3586 62.0134 51.1291 60.565 49.8122L43.2328 34.0528C40.9776 32.0023 41.3705 28.3502 44.0101 26.8263Z" fill="#B84046" stroke="white"/>
<path d="M188.361 37.6845L205.207 66.8621C206.714 69.4726 205.278 72.7978 202.345 73.4914L181.437 78.4347C179.503 78.892 177.498 78.0265 176.504 76.3055L166.033 58.1688C165.054 56.4735 165.284 54.3399 166.601 52.8915L181.134 36.9071C183.185 34.652 186.837 35.0448 188.361 37.6845Z" fill="#B84046" stroke="white"/>
<path d="M17.8564 66.7526L34.7021 37.575C36.2093 34.9645 39.8067 34.545 41.8741 36.7386L56.6094 52.3741C57.9723 53.8203 58.2253 55.9894 57.2316 57.7104L46.7604 75.8471C45.7816 77.5424 43.8191 78.4104 41.9063 77.9941L20.7965 73.3996C17.8183 72.7514 16.3324 69.3922 17.8564 66.7526Z" fill="#B84046" stroke="white"/>
<path d="M69.2238 148.84C68.7918 148.84 68.3118 148.816 67.7838 148.768C67.2558 148.72 66.6558 148.624 65.9838 148.48V155.536C65.9838 156.28 66.0078 156.868 66.0558 157.3C66.1038 157.708 66.2478 158.02 66.4878 158.236C66.7518 158.452 67.1118 158.596 67.5678 158.668C68.0478 158.74 68.8038 158.812 69.8358 158.884C69.8838 159.268 69.8838 159.652 69.8358 160.036C69.3078 160.036 68.6718 160.024 67.9277 160C67.2077 160 66.4878 160 65.7678 160C65.0718 159.976 64.4838 159.964 64.0038 159.964C63.5478 159.964 62.9718 159.976 62.2758 160C61.6038 160 60.9198 160 60.2238 160C59.5518 160.024 58.9518 160.036 58.4238 160.036C58.3758 159.676 58.3758 159.292 58.4238 158.884C59.5758 158.764 60.4038 158.656 60.9078 158.56C61.4118 158.44 61.7238 158.2 61.8438 157.84C61.9638 157.48 62.0238 156.868 62.0238 156.004V139.264C62.0238 138.256 61.9638 137.536 61.8438 137.104C61.7238 136.672 61.4118 136.396 60.9078 136.276C60.4038 136.132 59.5758 136.012 58.4238 135.916C58.3758 135.556 58.3758 135.172 58.4238 134.764C58.9038 134.764 59.5038 134.776 60.2238 134.8C60.9678 134.8 61.6878 134.812 62.3838 134.836C63.0798 134.836 63.5838 134.836 63.8958 134.836C64.3518 134.836 64.9158 134.836 65.5878 134.836C66.2838 134.812 66.9678 134.788 67.6398 134.764C68.3118 134.74 68.8398 134.728 69.2238 134.728C70.7358 134.728 72.1398 134.944 73.4358 135.376C74.7318 135.784 75.7758 136.468 76.5678 137.428C77.3598 138.388 77.7558 139.708 77.7558 141.388C77.7558 142.996 77.3838 144.352 76.6398 145.456C75.8958 146.56 74.8758 147.4 73.5798 147.976C72.3078 148.552 70.8558 148.84 69.2238 148.84ZM65.9838 147.04C66.2958 147.112 66.6438 147.184 67.0278 147.256C67.4118 147.328 67.8198 147.364 68.2518 147.364C69.8358 147.364 71.0838 146.836 71.9958 145.78C72.9078 144.7 73.3638 143.296 73.3638 141.568C73.3638 139.888 72.9078 138.568 71.9958 137.608C71.0838 136.648 69.7158 136.168 67.8918 136.168C67.6518 136.168 67.3518 136.18 66.9918 136.204C66.6558 136.228 66.3198 136.264 65.9838 136.312V147.04ZM87.2884 138.796V155.536C87.2884 156.28 87.3124 156.868 87.3604 157.3C87.4084 157.732 87.5404 158.044 87.7564 158.236C87.9724 158.428 88.3204 158.572 88.8004 158.668C89.2804 158.74 89.9644 158.812 90.8524 158.884C90.9244 159.268 90.9244 159.652 90.8524 160.036C90.3724 160.036 89.7844 160.024 89.0884 160C88.3924 160 87.6964 160 87.0004 160C86.3284 159.976 85.7644 159.964 85.3084 159.964C84.8524 159.964 84.2764 159.976 83.5804 160C82.9084 160 82.2244 160 81.5284 160C80.8564 160.024 80.2564 160.036 79.7284 160.036C79.6564 159.676 79.6564 159.292 79.7284 158.884C80.8804 158.764 81.7084 158.656 82.2124 158.56C82.7164 158.44 83.0284 158.2 83.1484 157.84C83.2684 157.48 83.3284 156.868 83.3284 156.004V139.264C83.3284 138.256 83.2684 137.536 83.1484 137.104C83.0284 136.672 82.7164 136.396 82.2124 136.276C81.7084 136.132 80.8804 136.012 79.7284 135.916C79.6804 135.556 79.6804 135.172 79.7284 134.764C80.2324 134.764 80.8324 134.776 81.5284 134.8C82.2484 134.8 82.9564 134.812 83.6524 134.836C84.3484 134.836 84.9244 134.836 85.3804 134.836C85.8364 134.836 86.4004 134.836 87.0724 134.836C87.7444 134.812 88.4284 134.8 89.1244 134.8C89.8204 134.776 90.3964 134.764 90.8524 134.764C90.9244 135.124 90.9244 135.508 90.8524 135.916C89.7244 136.012 88.9084 136.12 88.4044 136.24C87.9004 136.36 87.5884 136.6 87.4684 136.96C87.3484 137.32 87.2884 137.932 87.2884 138.796ZM114.185 135.556L98.0927 158.452H106.121C108.401 158.452 110.045 157.936 111.053 156.904C111.821 156.112 112.601 154.768 113.393 152.872C113.777 152.824 114.149 152.824 114.509 152.872C114.245 154.36 114.017 155.704 113.825 156.904C113.633 158.08 113.489 159.112 113.393 160C113.033 160 111.917 160 110.045 160C108.197 159.976 105.485 159.964 101.909 159.964C100.013 159.964 98.5127 159.976 97.4087 160C96.3047 160 95.4287 160 94.7807 160C94.1327 160.024 93.5447 160.036 93.0167 160.036C92.9207 159.82 92.8727 159.58 92.8727 159.316L108.965 136.348H101.117C99.2927 136.348 97.9487 136.768 97.0847 137.608C96.3167 138.352 95.6567 139.588 95.1047 141.316C94.7207 141.34 94.3127 141.34 93.8807 141.316C94.0727 140.116 94.2407 138.976 94.3847 137.896C94.5287 136.816 94.6487 135.76 94.7447 134.728C96.3047 134.824 97.9247 134.884 99.6047 134.908C101.309 134.908 103.109 134.908 105.005 134.908C106.949 134.908 108.497 134.908 109.649 134.908C110.825 134.884 111.749 134.86 112.421 134.836C113.093 134.812 113.633 134.8 114.041 134.8C114.089 134.896 114.125 135.016 114.149 135.16C114.173 135.28 114.185 135.412 114.185 135.556ZM137.81 135.556L121.718 158.452H129.746C132.026 158.452 133.67 157.936 134.678 156.904C135.446 156.112 136.226 154.768 137.018 152.872C137.402 152.824 137.774 152.824 138.134 152.872C137.87 154.36 137.642 155.704 137.45 156.904C137.258 158.08 137.114 159.112 137.018 160C136.658 160 135.542 160 133.67 160C131.822 159.976 129.11 159.964 125.534 159.964C123.638 159.964 122.138 159.976 121.034 160C119.93 160 119.054 160 118.406 160C117.758 160.024 117.17 160.036 116.642 160.036C116.546 159.82 116.498 159.58 116.498 159.316L132.59 136.348H124.742C122.918 136.348 121.574 136.768 120.71 137.608C119.942 138.352 119.282 139.588 118.73 141.316C118.346 141.34 117.938 141.34 117.506 141.316C117.698 140.116 117.866 138.976 118.01 137.896C118.154 136.816 118.274 135.76 118.37 134.728C119.93 134.824 121.55 134.884 123.23 134.908C124.934 134.908 126.734 134.908 128.63 134.908C130.574 134.908 132.122 134.908 133.274 134.908C134.45 134.884 135.374 134.86 136.046 134.836C136.718 134.812 137.258 134.8 137.666 134.8C137.714 134.896 137.75 135.016 137.774 135.16C137.798 135.28 137.81 135.412 137.81 135.556ZM138.251 160.036C138.203 159.652 138.203 159.268 138.251 158.884C138.923 158.812 139.463 158.728 139.871 158.632C140.279 158.536 140.627 158.368 140.915 158.128C141.203 157.864 141.479 157.48 141.743 156.976C142.007 156.448 142.319 155.716 142.679 154.78L150.455 134.836C150.719 134.74 151.031 134.668 151.391 134.62C151.775 134.572 152.099 134.548 152.363 134.548L160.103 155.104C160.439 155.968 160.715 156.652 160.931 157.156C161.147 157.636 161.387 157.984 161.651 158.2C161.915 158.416 162.251 158.572 162.659 158.668C163.067 158.74 163.631 158.812 164.351 158.884C164.399 159.268 164.399 159.652 164.351 160.036C163.511 160.036 162.647 160.024 161.759 160C160.871 159.976 159.983 159.964 159.095 159.964C158.183 159.964 157.259 159.976 156.323 160C155.411 160.024 154.499 160.036 153.587 160.036C153.515 159.676 153.515 159.292 153.587 158.884C154.763 158.764 155.579 158.656 156.035 158.56C156.491 158.44 156.719 158.152 156.719 157.696C156.719 157.504 156.683 157.288 156.611 157.048C156.539 156.808 156.443 156.508 156.323 156.148L154.271 150.604H146.171L144.371 155.572C144.203 156.028 144.071 156.412 143.975 156.724C143.903 157.012 143.867 157.276 143.867 157.516C143.867 158.044 144.107 158.38 144.587 158.524C145.091 158.644 145.907 158.764 147.035 158.884C147.083 159.292 147.083 159.676 147.035 160.036C146.219 160.036 145.415 160.024 144.623 160C143.831 159.976 143.027 159.964 142.211 159.964C141.539 159.964 140.891 159.976 140.267 160C139.643 160.024 138.971 160.036 138.251 160.036ZM146.711 149.092H153.731L150.203 139.516L146.711 149.092Z" fill="white"/>
<path d="M39.2852 83.3877C40.9551 84.8467 42.0889 86.5869 42.6865 88.6084C43.3018 90.6123 43.3193 92.5459 42.7393 94.4092C42.2646 95.9736 41.5264 97.3623 40.5244 98.5752C39.54 99.7705 38.3799 100.729 37.0439 101.449C35.7256 102.152 34.3545 102.697 32.9307 103.084C31.5068 103.453 30.0215 103.69 28.4746 103.796C29.0371 105.026 29.7314 107.259 30.5576 110.493C31.4014 113.728 32.1836 115.907 32.9043 117.032C33.3262 117.243 33.6338 117.366 33.8271 117.401C34.8115 117.577 35.585 117.595 36.1475 117.454C36.71 117.313 37.2021 117.138 37.624 116.927C38.0459 116.716 38.292 116.619 38.3623 116.637C38.415 116.654 38.5645 116.786 38.8105 117.032C39.0566 117.278 39.3203 117.551 39.6016 117.85L40.0498 118.324C40.1729 118.412 40.208 118.79 40.1553 119.458C40.1201 119.968 39.9619 120.504 39.6807 121.066C39.417 121.629 39.0479 122.156 38.5732 122.648C38.0986 123.158 37.4834 123.562 36.7275 123.861C35.9893 124.178 35.1895 124.327 34.3281 124.31C33.3613 124.257 32.5088 124.028 31.7705 123.624C31.2256 123.325 30.2061 122.402 28.7119 120.855C27.9033 119.994 27.1914 118.772 26.5762 117.19C25.9609 115.626 25.5039 114.114 25.2051 112.655C24.9062 111.196 24.5723 109.553 24.2031 107.725C23.834 105.896 23.5 104.517 23.2012 103.585L22.8057 103.479C20.8545 107.399 18.7012 110.405 16.3457 112.497C13.9902 114.571 11.5205 115.503 8.93652 115.292C7.4248 115.187 6.11523 114.668 5.00781 113.736C4.83203 113.613 4.375 113.183 3.63672 112.444C2.91602 111.688 2.48535 111.214 2.34473 111.021C1.74707 110.229 1.35156 109.333 1.1582 108.331C0.982422 107.312 1.04395 106.248 1.34277 105.141C1.6416 104.033 2.17773 102.987 2.95117 102.003C3.49609 101.335 4.22559 100.878 5.13965 100.632C6.07129 100.386 6.90625 100.315 7.64453 100.421C8.40039 100.526 8.93652 100.711 9.25293 100.975C10.2373 101.959 10.7822 102.521 10.8877 102.662C11.0635 102.838 11.0635 102.996 10.8877 103.137C9.42871 104.578 8.42676 105.949 7.88184 107.25C7.33691 108.551 7.20508 109.649 7.48633 110.546C7.76758 110.616 7.97852 110.651 8.11914 110.651C9.13867 110.651 10.0879 110.344 10.9668 109.729C11.8633 109.096 12.7246 108.111 13.5508 106.775C14.377 105.439 15.1504 103.928 15.8711 102.24C16.6094 100.553 17.4092 98.4609 18.2705 95.9648C19.4482 92.4668 20.4062 89.7334 21.1445 87.7646C21.5312 86.71 21.8477 85.9805 22.0938 85.5762C22.3574 85.1543 22.6914 84.7852 23.0957 84.4688C23.5 84.1523 24.2559 83.6777 25.3633 83.0449C22.832 83.5547 20.6084 84.583 18.6924 86.1299C16.7939 87.6592 15.4756 89.5312 14.7373 91.7461C13.999 93.9434 14.0957 96.3779 15.0273 99.0498C15.1504 99.3662 14.9043 99.6123 14.2891 99.7881C13.3398 100.087 12.3994 100.034 11.4678 99.6299C11.0986 99.4717 10.791 99.2783 10.5449 99.0498C10.4395 98.9795 10.1143 98.6543 9.56934 98.0742C9.02441 97.4941 8.70801 97.1514 8.62012 97.0459C8.49707 96.8701 8.36523 96.6152 8.22461 96.2812C7.85547 95.0859 7.71484 93.9082 7.80273 92.748C7.9082 91.5879 8.14551 90.4541 8.51465 89.3467C8.90137 88.2393 9.47266 87.1934 10.2285 86.209C10.9844 85.207 11.8457 84.2842 12.8125 83.4404C13.7793 82.5791 14.8867 81.8145 16.1348 81.1465C17.4004 80.4785 18.7188 79.9248 20.0898 79.4854C21.4609 79.0283 22.9375 78.7119 24.5195 78.5361C26.1191 78.3604 27.7275 78.334 29.3447 78.457C33.1416 78.7559 36.2002 80.127 38.5205 82.5703L39.2852 83.3877ZM28.9229 82.7285C28.9404 82.8164 29.0986 82.9922 29.3975 83.2559C29.6963 83.502 29.8633 83.6514 29.8984 83.7041C30.0742 83.8799 30.0566 84.2402 29.8457 84.7852C29.3887 86.1738 28.9229 87.5361 28.4482 88.8721C27.9736 90.1904 27.4287 91.667 26.8135 93.3018C26.2158 94.9365 25.75 96.2197 25.416 97.1514C25.2402 97.7314 25.0029 98.3818 24.7041 99.1025C24.9678 99.2959 25.1699 99.4893 25.3105 99.6826L25.4688 99.7881C28.0352 99.5947 30.2852 98.8213 32.2188 97.4678C34.1699 96.0967 35.4795 94.1367 36.1475 91.5879C36.4814 90.375 36.5342 89.1621 36.3057 87.9492C36.0947 86.7363 35.6113 85.6289 34.8555 84.627C33.4492 83.5547 31.7002 82.9395 29.6084 82.7812C29.292 82.7812 29.0635 82.7637 28.9229 82.7285ZM62.7509 102.979C62.8915 103.049 63.5419 103.664 64.7021 104.824C64.8779 105.053 64.913 105.325 64.8075 105.642C63.8759 108.56 62.2763 110.95 60.0087 112.813C57.7411 114.677 55.122 115.608 52.1513 115.608C50.2704 115.608 48.6005 115.143 47.1415 114.211C46.4208 113.771 45.4804 112.945 44.3202 111.732C43.4238 110.906 42.7294 109.931 42.2372 108.806C41.7626 107.663 41.5253 106.301 41.5253 104.719C41.5077 103.119 41.7978 101.405 42.3954 99.5771C43.0634 97.5381 43.9247 95.6484 44.9794 93.9082C46.0517 92.1504 47.2118 90.6738 48.4599 89.4785C49.7079 88.2832 51.0439 87.4482 52.4677 86.9736C53.8915 86.4814 55.2626 86.4727 56.581 86.9473C57.9872 87.5449 59.288 88.6611 60.4833 90.2959C61.1864 91.2275 61.6259 92.3438 61.8017 93.6445C61.995 94.9453 61.8808 96.2197 61.4589 97.4678C60.6679 99.9639 59.0419 102.012 56.581 103.611C54.1376 105.193 51.4745 106.099 48.5917 106.327C48.6445 107.892 48.9697 109.175 49.5673 110.177C50.1825 110.493 50.8681 110.651 51.6239 110.651C53.663 110.651 55.4384 110.019 56.9501 108.753C58.4794 107.487 59.6923 105.729 60.5888 103.479C60.747 103.128 61.0546 102.908 61.5116 102.82C61.9863 102.732 62.3993 102.785 62.7509 102.979ZM54.9198 95.0947C55.4648 93.6182 55.7372 92.4316 55.7372 91.5352C54.6298 91.834 53.496 92.8711 52.3359 94.6465C51.1757 96.4219 50.1825 98.6455 49.3564 101.317L49.1454 102.108C50.3056 101.546 51.413 100.649 52.4677 99.4189C53.54 98.1709 54.3573 96.7295 54.9198 95.0947ZM89.1961 103.031C89.2489 103.066 89.5301 103.348 90.0399 103.875C90.5496 104.385 90.8397 104.666 90.91 104.719C91.1561 104.965 91.2088 105.255 91.0682 105.589C90.2245 108.331 88.8709 110.687 87.0077 112.655C85.1444 114.624 83.1668 115.608 81.075 115.608C79.9852 115.608 79.036 115.31 78.2274 114.712C77.1375 113.815 76.3114 112.963 75.7489 112.154C75.5555 111.926 75.3709 111.627 75.1952 111.258C73.0682 114.158 70.8709 115.608 68.6034 115.608C67.619 115.608 66.7401 115.345 65.9666 114.817C65.6502 114.571 64.9823 113.921 63.9627 112.866C62.662 111.759 61.8621 110.071 61.5633 107.804C61.2645 105.519 61.5985 102.776 62.5653 99.5771C63.4793 96.8174 64.6659 94.374 66.1248 92.2471C67.5838 90.1201 69.2274 88.5469 71.0555 87.5273C72.9012 86.4902 74.6942 86.2969 76.4344 86.9473C77.1375 87.2109 77.7 87.6064 78.1219 88.1338C78.1922 88.2041 78.3153 88.3359 78.4911 88.5293C78.6668 88.7227 78.825 88.8896 78.9657 89.0303C79.1063 89.1533 79.2557 89.2676 79.4139 89.373C79.7479 88.4414 80.1258 87.3955 80.5477 86.2354C80.9871 85.0752 81.3299 84.1611 81.576 83.4932C81.8397 82.8076 81.9979 82.3594 82.0506 82.1484C82.2967 81.498 82.4725 81.041 82.578 80.7773C82.6834 80.4961 82.8416 80.1973 83.0526 79.8809C83.2635 79.5469 83.4393 79.3359 83.5799 79.248C83.7205 79.1426 83.9579 79.0371 84.2918 78.9316C84.6434 78.8262 84.9862 78.7734 85.3202 78.7734C85.6717 78.7559 86.1639 78.7471 86.7967 78.7471C87.3416 78.7471 87.7196 78.7998 87.9305 78.9053C88.0184 78.9229 88.326 79.1953 88.8534 79.7227C89.3983 80.2324 89.7235 80.5488 89.8289 80.6719C90.0047 80.9883 89.8641 81.7441 89.4071 82.9395C88.95 84.2227 87.702 87.6943 85.6629 93.3545C83.6414 99.0146 82.2616 102.926 81.5233 105.088C80.7323 107.514 80.4774 109.368 80.7586 110.651H80.8641C81.9715 110.651 83.0526 109.983 84.1073 108.647C85.162 107.294 86.1024 105.571 86.9286 103.479C87.0868 103.11 87.4207 102.891 87.9305 102.82C88.4579 102.732 88.8797 102.803 89.1961 103.031ZM69.5262 101.317C68.2782 105.571 67.8475 108.683 68.2342 110.651C69.1307 110.511 70.0272 109.966 70.9237 109.017C71.8377 108.05 72.6375 106.881 73.3231 105.51C74.0086 104.121 74.5799 102.855 75.037 101.713C75.494 100.553 75.8719 99.4629 76.1707 98.4434C77.0672 95.4199 77.287 93.082 76.8299 91.4297C75.6873 91.377 74.4041 92.3086 72.9803 94.2246C71.5741 96.123 70.4227 98.4873 69.5262 101.317ZM121.844 80.7246C122.055 80.8828 122.67 81.5508 123.69 82.7285C124.516 83.8359 124.911 85.1104 124.876 86.5518C124.841 87.9756 124.402 89.417 123.558 90.876C123.241 91.4385 122.784 91.9043 122.187 92.2734C121.589 92.625 120.991 92.8623 120.394 92.9854C119.796 93.0908 119.234 93.1348 118.706 93.1172C118.197 93.082 117.819 92.9854 117.573 92.8271C117.467 92.7568 117.151 92.458 116.623 91.9307C116.096 91.4033 115.823 91.1133 115.806 91.0605C115.736 90.9199 115.736 90.7881 115.806 90.665C116.79 89.2236 117.467 87.8262 117.836 86.4727C118.223 85.1016 118.258 83.959 117.942 83.0449C116.623 82.6406 115.287 82.8252 113.934 83.5986C112.598 84.3545 111.596 85.6641 110.928 87.5273C110.576 88.4766 110.489 89.5312 110.664 90.6914C110.858 91.8516 111.306 92.9062 112.009 93.8555C112.361 94.207 113.081 94.8574 114.171 95.8066C115.261 96.7559 116.07 97.5293 116.597 98.127C117.845 99.5859 118.645 101.203 118.996 102.979C119.365 104.736 119.269 106.521 118.706 108.331C118.197 109.931 117.423 111.328 116.386 112.523C115.349 113.719 114.154 114.615 112.8 115.213C111.447 115.811 109.961 116.197 108.344 116.373C106.744 116.566 105.127 116.461 103.492 116.057C101.418 115.617 99.4319 114.281 97.5334 112.049C96.2327 110.713 95.4153 109.113 95.0813 107.25C94.7649 105.387 95.0286 103.541 95.8723 101.713C96.7336 99.8672 98.1399 98.3994 100.091 97.3096C100.847 96.9053 101.647 96.7207 102.49 96.7559C103.334 96.791 104.09 96.9316 104.758 97.1777C105.426 97.4238 105.918 97.7051 106.235 98.0215C106.252 98.0566 106.542 98.3555 107.105 98.918C107.667 99.4629 107.975 99.7705 108.028 99.8408C108.133 100.069 108.054 100.236 107.79 100.342C106.437 100.887 105.285 101.643 104.336 102.609C103.405 103.559 102.754 104.543 102.385 105.562C102.016 106.582 101.831 107.602 101.831 108.621C101.849 109.623 102.06 110.502 102.464 111.258L102.886 111.469C104.89 112.119 106.753 111.864 108.476 110.704C110.216 109.544 111.376 107.725 111.956 105.246C112.659 102.416 112.264 99.9727 110.77 97.916L110.506 97.7578C110.049 97.4414 109.381 96.8877 108.502 96.0967C107.641 95.2881 107.14 94.7959 106.999 94.6201C105.523 93.2314 104.565 91.7109 104.125 90.0586C103.686 88.3887 103.791 86.6309 104.442 84.7852C105.022 83.2031 106.006 81.8848 107.395 80.8301C108.801 79.7754 110.383 79.0635 112.141 78.6943C113.899 78.3252 115.692 78.29 117.52 78.5889C119.401 78.835 120.842 79.5469 121.844 80.7246ZM138.888 103.031C138.976 103.102 139.292 103.4 139.837 103.928C140.382 104.455 140.698 104.789 140.786 104.93C140.874 105.07 140.892 105.29 140.839 105.589C139.96 108.331 138.536 110.687 136.567 112.655C134.616 114.624 132.507 115.608 130.239 115.608C129.185 115.608 128.288 115.38 127.55 114.923C126.829 114.466 125.818 113.473 124.518 111.943C122.777 109.5 122.654 105.668 124.148 100.447C124.553 98.9883 125.739 95.7275 127.708 90.665C126.583 89.5576 126.021 88.9863 126.021 88.9512C125.792 88.582 125.836 88.1074 126.152 87.5273C126.469 86.9297 126.917 86.6309 127.497 86.6309H129.211C129.369 86.2969 129.659 85.5938 130.081 84.5215C130.661 82.9395 131.171 81.9814 131.61 81.6475C132.05 81.2959 132.946 81.1201 134.3 81.1201C135.021 81.1201 135.522 81.1904 135.803 81.3311C135.891 81.3838 136.198 81.6826 136.726 82.2275C137.253 82.7549 137.561 83.0713 137.648 83.1768C137.895 83.5107 137.807 84.2842 137.385 85.4971L136.937 86.6309H137.596C137.631 86.6309 137.754 86.6836 137.965 86.7891C139.107 87.9316 139.688 88.5205 139.705 88.5557C139.898 88.9072 139.837 89.3643 139.521 89.9268C139.222 90.4893 138.809 90.7705 138.281 90.7705H135.381C132.604 98.1357 130.872 102.908 130.187 105.088C129.413 107.338 129.272 109.192 129.765 110.651H130.028C131.294 110.651 132.507 109.983 133.667 108.647C134.827 107.294 135.829 105.571 136.673 103.479C136.796 103.128 137.112 102.908 137.622 102.82C138.132 102.732 138.554 102.803 138.888 103.031ZM166.927 95.042C167.014 95.0947 167.322 95.3848 167.849 95.9121C168.377 96.4395 168.693 96.7646 168.799 96.8877C168.922 97.1338 168.939 97.3799 168.851 97.626C168.377 99.2607 167.322 100.737 165.687 102.056C164.07 103.356 162.084 104.244 159.728 104.719C158.639 107.971 157.074 110.599 155.035 112.603C152.996 114.606 150.623 115.608 147.916 115.608C146.791 115.608 145.763 115.38 144.831 114.923C144.005 114.519 142.906 113.578 141.535 112.102C140.287 110.906 139.514 109.324 139.215 107.355C138.898 105.369 139.171 102.943 140.032 100.078C140.419 99.0762 140.893 98.3643 141.456 97.9424C142.018 97.5029 142.818 97.2393 143.855 97.1514C143.556 96.2725 143.381 95.4463 143.328 94.6729C143.275 93.583 143.556 92.4756 144.172 91.3506C144.805 90.208 145.622 89.2148 146.624 88.3711C147.626 87.5273 148.786 86.9033 150.104 86.499C151.44 86.0947 152.723 86.042 153.954 86.3408C155.536 86.6748 156.995 87.7383 158.331 89.5312C159.386 90.5859 160.115 92.0186 160.519 93.8291C160.941 95.6221 161.056 97.5205 160.862 99.5244C162.743 98.6631 164.026 97.3359 164.712 95.543C164.87 95.209 165.195 94.998 165.687 94.9102C166.197 94.8047 166.61 94.8486 166.927 95.042ZM153.479 90.085C152.53 89.8916 151.634 90.3662 150.79 91.5088C149.964 92.6514 149.612 93.9346 149.735 95.3584C149.929 96.835 150.421 98.1182 151.212 99.208C151.915 99.7002 152.671 100.043 153.479 100.236C153.55 100.008 153.62 99.5947 153.69 98.9971C154.429 95.0947 154.358 92.124 153.479 90.085ZM146.993 101.792C146.378 103.655 146.026 105.387 145.938 106.986C145.868 108.568 146.035 109.772 146.439 110.599C146.58 110.634 146.764 110.651 146.993 110.651C148.013 110.651 148.979 110.089 149.893 108.964C150.807 107.839 151.607 106.336 152.293 104.455C150.148 103.822 148.434 102.812 147.151 101.423L146.993 101.792ZM192.144 102.979C192.232 103.049 192.557 103.356 193.12 103.901C193.682 104.446 194.007 104.789 194.095 104.93C194.201 105.088 194.201 105.308 194.095 105.589C193.252 108.331 191.898 110.687 190.035 112.655C188.172 114.624 186.194 115.608 184.102 115.608C183.487 115.608 182.881 115.459 182.283 115.16C181.685 114.879 181.202 114.58 180.833 114.264C180.481 113.965 180.006 113.517 179.409 112.919C177.932 111.442 177.264 109.553 177.405 107.25C177.546 104.824 178.319 101.511 179.725 97.3096C180.657 94.6729 181.255 92.8711 181.518 91.9043C180.446 92.4141 179.154 93.3896 177.642 94.8311C176.131 96.2549 174.628 98.0566 173.133 100.236C170.514 107.514 169.055 111.504 168.756 112.207C168.159 113.824 167.658 114.791 167.254 115.107C166.867 115.441 165.962 115.608 164.538 115.608C164.01 115.608 163.632 115.538 163.404 115.397C163.281 115.327 162.956 115.011 162.428 114.448C161.883 113.903 161.585 113.578 161.532 113.473C161.18 112.893 161.356 111.557 162.059 109.465C162.587 107.988 163.712 104.859 165.434 100.078C167.174 95.2969 168.387 91.9307 169.073 89.9795C169.337 89.2412 169.548 88.7139 169.706 88.3975C169.864 88.0635 170.04 87.7471 170.233 87.4482C170.426 87.1494 170.69 86.9648 171.024 86.8945C171.358 86.8066 171.718 86.7451 172.105 86.71C172.492 86.6572 173.072 86.6309 173.845 86.6309C174.601 86.6309 175.067 86.7363 175.243 86.9473L176.693 88.4502C176.939 88.6963 176.992 89.0918 176.851 89.6367C178.117 88.6875 179.339 87.9404 180.516 87.3955C181.694 86.8506 182.652 86.5781 183.39 86.5781C184.339 86.5781 185.06 86.7715 185.552 87.1582C185.658 87.2285 186.308 87.8613 187.504 89.0566C188.154 89.918 188.321 91.3418 188.005 93.3281C187.688 95.2969 186.871 98.2061 185.552 102.056C184.322 105.694 183.707 108.164 183.707 109.465C183.707 109.887 183.768 110.282 183.891 110.651C184.999 110.651 186.071 109.983 187.108 108.647C188.163 107.312 189.103 105.589 189.929 103.479C190.088 103.128 190.404 102.908 190.879 102.82C191.371 102.732 191.793 102.785 192.144 102.979ZM213.67 102.979C213.811 103.049 214.461 103.664 215.622 104.824C215.797 105.053 215.832 105.325 215.727 105.642C214.795 108.56 213.196 110.95 210.928 112.813C208.661 114.677 206.041 115.608 203.071 115.608C201.19 115.608 199.52 115.143 198.061 114.211C197.34 113.771 196.4 112.945 195.24 111.732C194.343 110.906 193.649 109.931 193.157 108.806C192.682 107.663 192.445 106.301 192.445 104.719C192.427 103.119 192.717 101.405 193.315 99.5771C193.983 97.5381 194.844 95.6484 195.899 93.9082C196.971 92.1504 198.131 90.6738 199.379 89.4785C200.627 88.2832 201.963 87.4482 203.387 86.9736C204.811 86.4814 206.182 86.4727 207.5 86.9473C208.907 87.5449 210.207 88.6611 211.403 90.2959C212.106 91.2275 212.545 92.3438 212.721 93.6445C212.914 94.9453 212.8 96.2197 212.378 97.4678C211.587 99.9639 209.961 102.012 207.5 103.611C205.057 105.193 202.394 106.099 199.511 106.327C199.564 107.892 199.889 109.175 200.487 110.177C201.102 110.493 201.788 110.651 202.543 110.651C204.582 110.651 206.358 110.019 207.87 108.753C209.399 107.487 210.612 105.729 211.508 103.479C211.666 103.128 211.974 102.908 212.431 102.82C212.906 102.732 213.319 102.785 213.67 102.979ZM205.839 95.0947C206.384 93.6182 206.657 92.4316 206.657 91.5352C205.549 91.834 204.415 92.8711 203.255 94.6465C202.095 96.4219 201.102 98.6455 200.276 101.317L200.065 102.108C201.225 101.546 202.332 100.649 203.387 99.4189C204.459 98.1709 205.277 96.7295 205.839 95.0947Z" fill="white"/>
</svg>
