<svg width="195" height="173" viewBox="0 0 195 173" fill="none" xmlns="http://www.w3.org/2000/svg">
<path d="M72.4358 6.36974C71.5081 3.4664 73.6743 0.5 76.7223 0.5H118.087C121.101 0.5 123.263 3.40572 122.397 6.29295L114.735 31.8367C114.164 33.7402 112.412 35.0438 110.424 35.0438H84.8848C82.9272 35.0438 81.1942 33.7782 80.5983 31.9135L72.4358 6.36974Z" fill="#B84046" stroke="white"/>
<path d="M125.861 11.6433C126.509 8.66506 129.869 7.17921 132.508 8.70319L164.008 26.8898C166.619 28.397 167.038 31.9944 164.845 34.0618L147.891 50.0396C146.444 51.4025 144.275 51.6555 142.554 50.6618L123.026 39.3872C121.331 38.4085 120.463 36.4459 120.879 34.5331L125.861 11.6433Z" fill="#B84046" stroke="white"/>
<path d="M29.2328 34.0528C26.9776 32.0023 27.3705 28.3502 30.0101 26.8263L61.5102 8.63964C64.1207 7.13247 67.4459 8.5679 68.1395 11.5014L73.4997 34.1728C73.957 36.1067 73.0915 38.1116 71.3704 39.1053L51.8423 50.3799C50.147 51.3586 48.0134 51.1291 46.565 49.8122L29.2328 34.0528Z" fill="#B84046" stroke="white"/>
<path d="M167.134 36.9071C169.185 34.652 172.837 35.0448 174.361 37.6845L191.207 66.8621C192.714 69.4726 191.278 72.7978 188.345 73.4914L167.437 78.4347C165.503 78.892 163.498 78.0265 162.504 76.3055L152.033 58.1688C151.054 56.4735 151.284 54.3399 152.601 52.8915L167.134 36.9071Z" fill="#B84046" stroke="white"/>
<path d="M6.79653 73.3996C3.81829 72.7514 2.33244 69.3922 3.85642 66.7526L20.7021 37.575C22.2093 34.9645 25.8067 34.545 27.8741 36.7386L42.6094 52.3741C43.9723 53.8203 44.2253 55.9894 43.2316 57.7104L32.7604 75.8471C31.7816 77.5424 29.8191 78.4104 27.9063 77.9941L6.79653 73.3996Z" fill="#B84046" stroke="white"/>
<path d="M55.2238 148.84C54.7918 148.84 54.3118 148.816 53.7838 148.768C53.2558 148.72 52.6558 148.624 51.9838 148.48V155.536C51.9838 156.28 52.0078 156.868 52.0558 157.3C52.1038 157.708 52.2478 158.02 52.4878 158.236C52.7518 158.452 53.1118 158.596 53.5678 158.668C54.0478 158.74 54.8038 158.812 55.8358 158.884C55.8838 159.268 55.8838 159.652 55.8358 160.036C55.3078 160.036 54.6718 160.024 53.9277 160C53.2077 160 52.4878 160 51.7678 160C51.0718 159.976 50.4838 159.964 50.0038 159.964C49.5478 159.964 48.9718 159.976 48.2758 160C47.6038 160 46.9198 160 46.2238 160C45.5518 160.024 44.9518 160.036 44.4238 160.036C44.3758 159.676 44.3758 159.292 44.4238 158.884C45.5758 158.764 46.4038 158.656 46.9078 158.56C47.4118 158.44 47.7238 158.2 47.8438 157.84C47.9638 157.48 48.0238 156.868 48.0238 156.004V139.264C48.0238 138.256 47.9638 137.536 47.8438 137.104C47.7238 136.672 47.4118 136.396 46.9078 136.276C46.4038 136.132 45.5758 136.012 44.4238 135.916C44.3758 135.556 44.3758 135.172 44.4238 134.764C44.9038 134.764 45.5038 134.776 46.2238 134.8C46.9678 134.8 47.6878 134.812 48.3838 134.836C49.0798 134.836 49.5838 134.836 49.8958 134.836C50.3518 134.836 50.9158 134.836 51.5878 134.836C52.2838 134.812 52.9678 134.788 53.6398 134.764C54.3118 134.74 54.8398 134.728 55.2238 134.728C56.7358 134.728 58.1398 134.944 59.4358 135.376C60.7318 135.784 61.7758 136.468 62.5678 137.428C63.3598 138.388 63.7558 139.708 63.7558 141.388C63.7558 142.996 63.3838 144.352 62.6398 145.456C61.8958 146.56 60.8758 147.4 59.5798 147.976C58.3078 148.552 56.8558 148.84 55.2238 148.84ZM51.9838 147.04C52.2958 147.112 52.6438 147.184 53.0278 147.256C53.4118 147.328 53.8198 147.364 54.2518 147.364C55.8358 147.364 57.0838 146.836 57.9958 145.78C58.9078 144.7 59.3638 143.296 59.3638 141.568C59.3638 139.888 58.9078 138.568 57.9958 137.608C57.0838 136.648 55.7158 136.168 53.8918 136.168C53.6518 136.168 53.3518 136.18 52.9918 136.204C52.6558 136.228 52.3198 136.264 51.9838 136.312V147.04ZM73.2884 138.796V155.536C73.2884 156.28 73.3124 156.868 73.3604 157.3C73.4084 157.732 73.5404 158.044 73.7564 158.236C73.9724 158.428 74.3204 158.572 74.8004 158.668C75.2804 158.74 75.9644 158.812 76.8524 158.884C76.9244 159.268 76.9244 159.652 76.8524 160.036C76.3724 160.036 75.7844 160.024 75.0884 160C74.3924 160 73.6964 160 73.0004 160C72.3284 159.976 71.7644 159.964 71.3084 159.964C70.8524 159.964 70.2764 159.976 69.5804 160C68.9084 160 68.2244 160 67.5284 160C66.8564 160.024 66.2564 160.036 65.7284 160.036C65.6564 159.676 65.6564 159.292 65.7284 158.884C66.8804 158.764 67.7084 158.656 68.2124 158.56C68.7164 158.44 69.0284 158.2 69.1484 157.84C69.2684 157.48 69.3284 156.868 69.3284 156.004V139.264C69.3284 138.256 69.2684 137.536 69.1484 137.104C69.0284 136.672 68.7164 136.396 68.2124 136.276C67.7084 136.132 66.8804 136.012 65.7284 135.916C65.6804 135.556 65.6804 135.172 65.7284 134.764C66.2324 134.764 66.8324 134.776 67.5284 134.8C68.2484 134.8 68.9564 134.812 69.6524 134.836C70.3484 134.836 70.9244 134.836 71.3804 134.836C71.8364 134.836 72.4004 134.836 73.0724 134.836C73.7444 134.812 74.4284 134.8 75.1244 134.8C75.8204 134.776 76.3964 134.764 76.8524 134.764C76.9244 135.124 76.9244 135.508 76.8524 135.916C75.7244 136.012 74.9084 136.12 74.4044 136.24C73.9004 136.36 73.5884 136.6 73.4684 136.96C73.3484 137.32 73.2884 137.932 73.2884 138.796ZM100.185 135.556L84.0927 158.452H92.1207C94.4007 158.452 96.0447 157.936 97.0527 156.904C97.8207 156.112 98.6007 154.768 99.3927 152.872C99.7767 152.824 100.149 152.824 100.509 152.872C100.245 154.36 100.017 155.704 99.8247 156.904C99.6327 158.08 99.4887 159.112 99.3927 160C99.0327 160 97.9167 160 96.0447 160C94.1967 159.976 91.4847 159.964 87.9087 159.964C86.0127 159.964 84.5127 159.976 83.4087 160C82.3047 160 81.4287 160 80.7807 160C80.1327 160.024 79.5447 160.036 79.0167 160.036C78.9207 159.82 78.8727 159.58 78.8727 159.316L94.9647 136.348H87.1167C85.2927 136.348 83.9487 136.768 83.0847 137.608C82.3167 138.352 81.6567 139.588 81.1047 141.316C80.7207 141.34 80.3127 141.34 79.8807 141.316C80.0727 140.116 80.2407 138.976 80.3847 137.896C80.5287 136.816 80.6487 135.76 80.7447 134.728C82.3047 134.824 83.9247 134.884 85.6047 134.908C87.3087 134.908 89.1087 134.908 91.0047 134.908C92.9487 134.908 94.4967 134.908 95.6487 134.908C96.8247 134.884 97.7487 134.86 98.4207 134.836C99.0927 134.812 99.6327 134.8 100.041 134.8C100.089 134.896 100.125 135.016 100.149 135.16C100.173 135.28 100.185 135.412 100.185 135.556ZM123.81 135.556L107.718 158.452H115.746C118.026 158.452 119.67 157.936 120.678 156.904C121.446 156.112 122.226 154.768 123.018 152.872C123.402 152.824 123.774 152.824 124.134 152.872C123.87 154.36 123.642 155.704 123.45 156.904C123.258 158.08 123.114 159.112 123.018 160C122.658 160 121.542 160 119.67 160C117.822 159.976 115.11 159.964 111.534 159.964C109.638 159.964 108.138 159.976 107.034 160C105.93 160 105.054 160 104.406 160C103.758 160.024 103.17 160.036 102.642 160.036C102.546 159.82 102.498 159.58 102.498 159.316L118.59 136.348H110.742C108.918 136.348 107.574 136.768 106.71 137.608C105.942 138.352 105.282 139.588 104.73 141.316C104.346 141.34 103.938 141.34 103.506 141.316C103.698 140.116 103.866 138.976 104.01 137.896C104.154 136.816 104.274 135.76 104.37 134.728C105.93 134.824 107.55 134.884 109.23 134.908C110.934 134.908 112.734 134.908 114.63 134.908C116.574 134.908 118.122 134.908 119.274 134.908C120.45 134.884 121.374 134.86 122.046 134.836C122.718 134.812 123.258 134.8 123.666 134.8C123.714 134.896 123.75 135.016 123.774 135.16C123.798 135.28 123.81 135.412 123.81 135.556ZM124.251 160.036C124.203 159.652 124.203 159.268 124.251 158.884C124.923 158.812 125.463 158.728 125.871 158.632C126.279 158.536 126.627 158.368 126.915 158.128C127.203 157.864 127.479 157.48 127.743 156.976C128.007 156.448 128.319 155.716 128.679 154.78L136.455 134.836C136.719 134.74 137.031 134.668 137.391 134.62C137.775 134.572 138.099 134.548 138.363 134.548L146.103 155.104C146.439 155.968 146.715 156.652 146.931 157.156C147.147 157.636 147.387 157.984 147.651 158.2C147.915 158.416 148.251 158.572 148.659 158.668C149.067 158.74 149.631 158.812 150.351 158.884C150.399 159.268 150.399 159.652 150.351 160.036C149.511 160.036 148.647 160.024 147.759 160C146.871 159.976 145.983 159.964 145.095 159.964C144.183 159.964 143.259 159.976 142.323 160C141.411 160.024 140.499 160.036 139.587 160.036C139.515 159.676 139.515 159.292 139.587 158.884C140.763 158.764 141.579 158.656 142.035 158.56C142.491 158.44 142.719 158.152 142.719 157.696C142.719 157.504 142.683 157.288 142.611 157.048C142.539 156.808 142.443 156.508 142.323 156.148L140.271 150.604H132.171L130.371 155.572C130.203 156.028 130.071 156.412 129.975 156.724C129.903 157.012 129.867 157.276 129.867 157.516C129.867 158.044 130.107 158.38 130.587 158.524C131.091 158.644 131.907 158.764 133.035 158.884C133.083 159.292 133.083 159.676 133.035 160.036C132.219 160.036 131.415 160.024 130.623 160C129.831 159.976 129.027 159.964 128.211 159.964C127.539 159.964 126.891 159.976 126.267 160C125.643 160.024 124.971 160.036 124.251 160.036ZM132.711 149.092H139.731L136.203 139.516L132.711 149.092Z" fill="white"/>
</svg>
