<svg width="1046" height="1037" viewBox="0 0 1046 1037" fill="none" xmlns="http://www.w3.org/2000/svg">
<ellipse cx="523" cy="518.5" rx="523" ry="518.5" fill="#B5672B"/>
<ellipse cx="523" cy="518.5" rx="454" ry="450.094" fill="#FED29A"/>
<path d="M523 68.4063L520 967.602" stroke="#7D4B25" stroke-width="10"/>
<path d="M68 535.354L977 532.38" stroke="#7D4B25" stroke-width="10"/>
<path d="M216 848.635L846 200.262" stroke="#7D4B25" stroke-width="10"/>
<path d="M184 215.133L846 839.712" stroke="#7D4B25" stroke-width="10"/>
<ellipse cx="204" cy="392.593" rx="58" ry="55.5182" fill="#821E06"/>
<ellipse cx="444" cy="325.178" rx="58" ry="55.5182" fill="#821E06"/>
<ellipse cx="612" cy="164.572" rx="58" ry="55.5182" fill="#821E06"/>
<ellipse cx="856" cy="350.954" rx="58" ry="55.5182" fill="#821E06"/>
<ellipse cx="898" cy="600.786" rx="58" ry="55.5182" fill="#821E06"/>
<ellipse cx="692" cy="848.635" rx="58" ry="55.5182" fill="#821E06"/>
<ellipse cx="444" cy="864.497" rx="58" ry="55.5182" fill="#821E06"/>
<ellipse cx="204" cy="711.822" rx="58" ry="55.5182" fill="#821E06"/>
<ellipse cx="346" cy="471.904" rx="58" ry="55.5182" fill="#821E06"/>
<ellipse cx="386" cy="178.451" rx="58" ry="55.5182" fill="#821E06"/>
<ellipse cx="622" cy="325.178" rx="58" ry="55.5182" fill="#821E06"/>
<ellipse cx="750" cy="448.111" rx="58" ry="55.5182" fill="#821E06"/>
<ellipse cx="750" cy="622.597" rx="58" ry="55.5182" fill="#821E06"/>
<ellipse cx="606" cy="711.822" rx="58" ry="55.5182" fill="#821E06"/>
<ellipse cx="444" cy="733.633" rx="58" ry="55.5182" fill="#821E06"/>
<ellipse cx="320" cy="622.597" rx="58" ry="55.5182" fill="#821E06"/>
</svg>
