<svg width="129" height="66" viewBox="0 0 129 66" fill="none" xmlns="http://www.w3.org/2000/svg">
<path d="M57.4718 0.5H73.4834C76.4977 0.5 78.6598 3.40572 77.7937 6.29295L75.0522 15.4319C74.4813 17.3354 72.7293 18.639 70.742 18.639H60.3922C58.4346 18.639 56.7016 17.3734 56.1057 15.5087L53.1853 6.36974C52.2576 3.4664 54.4239 0.5 57.4718 0.5Z" fill="#B84046" stroke="#722020"/>
<path d="M86.972 6.46622L98.5109 13.1282C101.121 14.6354 101.541 18.2328 99.3472 20.3002L93.7249 25.5988C92.2787 26.9618 90.1096 27.2147 88.3886 26.2211L80.8199 21.8513C79.1246 20.8725 78.2565 18.91 78.6728 16.9972L80.3249 9.40633C80.9731 6.42809 84.3324 4.94224 86.972 6.46622Z" fill="#B84046" stroke="#722020"/>
<path d="M32.0106 13.0647L43.5495 6.40274C46.16 4.89558 49.4852 6.33101 50.1788 9.26446L51.9564 16.7829C52.4136 18.7168 51.5481 20.7217 49.8271 21.7154L42.2584 26.0852C40.5631 27.064 38.4294 26.8345 36.9811 25.5175L31.2333 20.2913C28.9781 18.2408 29.371 14.5887 32.0106 13.0647Z" fill="#B84046" stroke="#722020"/>
<path d="M108.267 23.1437L114.207 33.4321C115.714 36.0426 114.278 39.3678 111.345 40.0613L104.776 41.6145C102.842 42.0717 100.837 41.2062 99.8435 39.4852L95.9062 32.6658C94.9274 30.9704 95.1569 28.8368 96.4739 27.3884L101.04 22.3664C103.091 20.1113 106.743 20.5041 108.267 23.1437Z" fill="#B84046" stroke="#722020"/>
<path d="M16.8564 33.3224L22.7964 23.0341C24.3036 20.4236 27.901 20.0041 29.9684 22.1978L34.598 27.1102C35.9609 28.5564 36.2139 30.7254 35.2202 32.4465L31.283 39.2659C30.3042 40.9613 28.3417 41.8293 26.4289 41.413L19.7965 39.9695C16.8183 39.3213 15.3324 35.962 16.8564 33.3224Z" fill="#B84046" stroke="#722020"/>
<g filter="url(#filter0_d_1035_884)">
<path d="M26.2695 34.9932C27.1973 35.8037 27.8271 36.7705 28.1592 37.8936C28.501 39.0068 28.5107 40.0811 28.1885 41.1162C27.9248 41.9854 27.5146 42.7568 26.958 43.4307C26.4111 44.0947 25.7666 44.627 25.0244 45.0273C24.292 45.418 23.5303 45.7207 22.7393 45.9355C21.9482 46.1406 21.123 46.2725 20.2637 46.3311C20.5762 47.0146 20.9619 48.2549 21.4209 50.0518C21.8896 51.8486 22.3242 53.0596 22.7246 53.6846C22.959 53.8018 23.1299 53.8701 23.2373 53.8896C23.7842 53.9873 24.2139 53.9971 24.5264 53.9189C24.8389 53.8408 25.1123 53.7432 25.3467 53.626C25.5811 53.5088 25.7178 53.4551 25.7568 53.4648C25.7861 53.4746 25.8691 53.5479 26.0059 53.6846C26.1426 53.8213 26.2891 53.9727 26.4453 54.1387L26.6943 54.4023C26.7627 54.4512 26.7822 54.6611 26.7529 55.0322C26.7334 55.3154 26.6455 55.6133 26.4893 55.9258C26.3428 56.2383 26.1377 56.5312 25.874 56.8047C25.6104 57.0879 25.2686 57.3125 24.8486 57.4785C24.4385 57.6543 23.9941 57.7373 23.5156 57.7275C22.9785 57.6982 22.5049 57.5713 22.0947 57.3467C21.792 57.1807 21.2256 56.668 20.3955 55.8086C19.9463 55.3301 19.5508 54.6514 19.209 53.7725C18.8672 52.9033 18.6133 52.0635 18.4473 51.2529C18.2812 50.4424 18.0957 49.5293 17.8906 48.5137C17.6855 47.498 17.5 46.7314 17.334 46.2139L17.1143 46.1553C16.0303 48.333 14.834 50.0029 13.5254 51.165C12.2168 52.3174 10.8447 52.835 9.40918 52.7178C8.56934 52.6592 7.8418 52.3711 7.22656 51.8535C7.12891 51.7852 6.875 51.5459 6.46484 51.1357C6.06445 50.7158 5.8252 50.4521 5.74707 50.3447C5.41504 49.9053 5.19531 49.4072 5.08789 48.8506C4.99023 48.2842 5.02441 47.6934 5.19043 47.0781C5.35645 46.4629 5.6543 45.8818 6.08398 45.335C6.38672 44.9639 6.79199 44.71 7.2998 44.5732C7.81738 44.4365 8.28125 44.3975 8.69141 44.4561C9.11133 44.5146 9.40918 44.6172 9.58496 44.7637C10.1318 45.3105 10.4346 45.623 10.4932 45.7012C10.5908 45.7988 10.5908 45.8867 10.4932 45.9648C9.68262 46.7656 9.12598 47.5273 8.82324 48.25C8.52051 48.9727 8.44727 49.583 8.60352 50.0811C8.75977 50.1201 8.87695 50.1396 8.95508 50.1396C9.52148 50.1396 10.0488 49.9688 10.5371 49.627C11.0352 49.2754 11.5137 48.7285 11.9727 47.9863C12.4316 47.2441 12.8613 46.4043 13.2617 45.4668C13.6719 44.5293 14.1162 43.3672 14.5947 41.9805C15.249 40.0371 15.7812 38.5186 16.1914 37.4248C16.4062 36.8389 16.582 36.4336 16.7188 36.209C16.8652 35.9746 17.0508 35.7695 17.2754 35.5938C17.5 35.418 17.9199 35.1543 18.5352 34.8027C17.1289 35.0859 15.8936 35.6572 14.8291 36.5166C13.7744 37.3662 13.042 38.4062 12.6318 39.6367C12.2217 40.8574 12.2754 42.21 12.793 43.6943C12.8613 43.8701 12.7246 44.0068 12.3828 44.1045C11.8555 44.2705 11.333 44.2412 10.8154 44.0166C10.6104 43.9287 10.4395 43.8213 10.3027 43.6943C10.2441 43.6553 10.0635 43.4746 9.76074 43.1523C9.45801 42.8301 9.28223 42.6396 9.2334 42.5811C9.16504 42.4834 9.0918 42.3418 9.01367 42.1562C8.80859 41.4922 8.73047 40.8379 8.7793 40.1934C8.83789 39.5488 8.96973 38.9189 9.1748 38.3037C9.38965 37.6885 9.70703 37.1074 10.127 36.5605C10.5469 36.0039 11.0254 35.4912 11.5625 35.0225C12.0996 34.5439 12.7148 34.1191 13.4082 33.748C14.1113 33.377 14.8438 33.0693 15.6055 32.8252C16.3672 32.5713 17.1875 32.3955 18.0664 32.2979C18.9551 32.2002 19.8486 32.1855 20.7471 32.2539C22.8564 32.4199 24.5557 33.1816 25.8447 34.5391L26.2695 34.9932ZM20.5127 34.627C20.5225 34.6758 20.6104 34.7734 20.7764 34.9199C20.9424 35.0566 21.0352 35.1396 21.0547 35.1689C21.1523 35.2666 21.1426 35.4668 21.0254 35.7695C20.7715 36.541 20.5127 37.2979 20.249 38.04C19.9854 38.7725 19.6826 39.5928 19.3408 40.501C19.0088 41.4092 18.75 42.1221 18.5645 42.6396C18.4668 42.9619 18.335 43.3232 18.1689 43.7236C18.3154 43.8311 18.4277 43.9385 18.5059 44.0459L18.5938 44.1045C20.0195 43.9971 21.2695 43.5674 22.3438 42.8154C23.4277 42.0537 24.1553 40.9648 24.5264 39.5488C24.7119 38.875 24.7412 38.2012 24.6143 37.5273C24.4971 36.8535 24.2285 36.2383 23.8086 35.6816C23.0273 35.0859 22.0557 34.7441 20.8936 34.6562C20.7178 34.6562 20.5908 34.6465 20.5127 34.627ZM39.3061 45.877C39.3842 45.916 39.7455 46.2578 40.39 46.9023C40.4877 47.0293 40.5072 47.1807 40.4486 47.3564C39.9311 48.9775 39.0424 50.3057 37.7826 51.3408C36.5229 52.376 35.0678 52.8936 33.4174 52.8936C32.3725 52.8936 31.4447 52.6348 30.6342 52.1172C30.2338 51.873 29.7113 51.4141 29.0668 50.7402C28.5688 50.2812 28.183 49.7393 27.9096 49.1143C27.6459 48.4795 27.5141 47.7227 27.5141 46.8438C27.5043 45.9551 27.6654 45.0029 27.9975 43.9873C28.3686 42.8545 28.8471 41.8047 29.433 40.8379C30.0287 39.8613 30.6732 39.041 31.3666 38.377C32.06 37.7129 32.8021 37.249 33.5932 36.9854C34.3842 36.7119 35.1459 36.707 35.8783 36.9707C36.6596 37.3027 37.3822 37.9229 38.0463 38.8311C38.4369 39.3486 38.6811 39.9688 38.7787 40.6914C38.8861 41.4141 38.8227 42.1221 38.5883 42.8154C38.1488 44.2021 37.2455 45.3398 35.8783 46.2285C34.5209 47.1074 33.0414 47.6104 31.4398 47.7373C31.4691 48.6064 31.6498 49.3193 31.9818 49.876C32.3236 50.0518 32.7045 50.1396 33.1244 50.1396C34.2572 50.1396 35.2436 49.7881 36.0834 49.085C36.933 48.3818 37.6068 47.4053 38.1049 46.1553C38.1928 45.96 38.3637 45.8379 38.6176 45.7891C38.8813 45.7402 39.1107 45.7695 39.3061 45.877ZM34.9555 41.4971C35.2582 40.6768 35.4096 40.0176 35.4096 39.5195C34.7943 39.6855 34.1645 40.2617 33.5199 41.248C32.8754 42.2344 32.3236 43.4697 31.8646 44.9541L31.7475 45.3936C32.392 45.0811 33.0072 44.583 33.5932 43.8994C34.1889 43.2061 34.643 42.4053 34.9555 41.4971ZM53.9979 45.9062C54.0271 45.9258 54.1834 46.082 54.4666 46.375C54.7498 46.6582 54.9109 46.8145 54.95 46.8438C55.0867 46.9805 55.116 47.1416 55.0379 47.3271C54.5691 48.8506 53.8172 50.1592 52.782 51.2529C51.7469 52.3467 50.6482 52.8936 49.4861 52.8936C48.8807 52.8936 48.3533 52.7275 47.9041 52.3955C47.2986 51.8975 46.8396 51.4238 46.5271 50.9746C46.4197 50.8477 46.3172 50.6816 46.2195 50.4766C45.0379 52.0879 43.8172 52.8936 42.5574 52.8936C42.0105 52.8936 41.5223 52.7471 41.0926 52.4541C40.9168 52.3174 40.5457 51.9561 39.9793 51.3701C39.2566 50.7549 38.8123 49.8174 38.6463 48.5576C38.4803 47.2881 38.6658 45.7646 39.2029 43.9873C39.7107 42.4541 40.3699 41.0967 41.1805 39.915C41.991 38.7334 42.9041 37.8594 43.9197 37.293C44.9451 36.7168 45.9412 36.6094 46.908 36.9707C47.2986 37.1172 47.6111 37.3369 47.8455 37.6299C47.8846 37.6689 47.9529 37.7422 48.0506 37.8496C48.1482 37.957 48.2361 38.0498 48.3143 38.1279C48.3924 38.1963 48.4754 38.2598 48.5633 38.3184C48.7488 37.8008 48.9588 37.2197 49.1932 36.5752C49.4373 35.9307 49.6277 35.4229 49.7645 35.0518C49.9109 34.6709 49.9988 34.4219 50.0281 34.3047C50.1648 33.9434 50.2625 33.6895 50.3211 33.543C50.3797 33.3867 50.4676 33.2207 50.5848 33.0449C50.702 32.8594 50.7996 32.7422 50.8777 32.6934C50.9559 32.6348 51.0877 32.5762 51.2732 32.5176C51.4686 32.459 51.659 32.4297 51.8445 32.4297C52.0398 32.4199 52.3133 32.415 52.6648 32.415C52.9676 32.415 53.1775 32.4443 53.2947 32.5029C53.3436 32.5127 53.5145 32.6641 53.8074 32.957C54.1102 33.2402 54.2908 33.416 54.3494 33.4844C54.4471 33.6602 54.3689 34.0801 54.115 34.7441C53.8611 35.457 53.1678 37.3857 52.035 40.5303C50.9119 43.6748 50.1453 45.8477 49.7352 47.0488C49.2957 48.3965 49.1541 49.4268 49.3104 50.1396H49.3689C49.9842 50.1396 50.5848 49.7686 51.1707 49.0264C51.7566 48.2744 52.2791 47.3174 52.7381 46.1553C52.826 45.9502 53.0115 45.8281 53.2947 45.7891C53.5877 45.7402 53.8221 45.7793 53.9979 45.9062ZM43.0701 44.9541C42.3768 47.3174 42.1375 49.0459 42.3523 50.1396C42.8504 50.0615 43.3484 49.7588 43.8465 49.2314C44.3543 48.6943 44.7986 48.0449 45.1795 47.2832C45.5604 46.5117 45.8777 45.8086 46.1316 45.1738C46.3855 44.5293 46.5955 43.9238 46.7615 43.3574C47.2596 41.6777 47.3816 40.3789 47.1277 39.4609C46.493 39.4316 45.7801 39.9492 44.9891 41.0137C44.2078 42.0684 43.5682 43.3818 43.0701 44.9541ZM72.1355 33.5137C72.2527 33.6016 72.5945 33.9727 73.1609 34.627C73.6199 35.2422 73.8396 35.9502 73.8201 36.751C73.8006 37.542 73.5564 38.3428 73.0877 39.1533C72.9119 39.4658 72.658 39.7246 72.326 39.9297C71.9939 40.125 71.6619 40.2568 71.3299 40.3252C70.9979 40.3838 70.6854 40.4082 70.3924 40.3984C70.1092 40.3789 69.8992 40.3252 69.7625 40.2373C69.7039 40.1982 69.5281 40.0322 69.2352 39.7393C68.9422 39.4463 68.7908 39.2852 68.7811 39.2559C68.742 39.1777 68.742 39.1045 68.7811 39.0361C69.3279 38.2354 69.7039 37.459 69.909 36.707C70.1238 35.9453 70.1434 35.3105 69.9676 34.8027C69.2352 34.5781 68.493 34.6807 67.741 35.1104C66.9988 35.5303 66.4422 36.2578 66.0711 37.293C65.8758 37.8203 65.827 38.4062 65.9246 39.0508C66.032 39.6953 66.2811 40.2812 66.6717 40.8086C66.867 41.0039 67.2674 41.3652 67.8729 41.8926C68.4783 42.4199 68.9275 42.8496 69.2205 43.1816C69.9139 43.9922 70.3582 44.8906 70.5535 45.877C70.7586 46.8535 70.7049 47.8447 70.3924 48.8506C70.1092 49.7393 69.6795 50.5156 69.1033 51.1797C68.5271 51.8438 67.8631 52.3418 67.1111 52.6738C66.3592 53.0059 65.534 53.2207 64.6355 53.3184C63.7469 53.4258 62.8484 53.3672 61.9402 53.1426C60.7879 52.8984 59.6844 52.1562 58.6297 50.916C57.907 50.1738 57.4529 49.2852 57.2674 48.25C57.0916 47.2148 57.2381 46.1895 57.7068 45.1738C58.1854 44.1484 58.9666 43.333 60.0506 42.7275C60.4705 42.5029 60.9148 42.4004 61.3836 42.4199C61.8523 42.4395 62.2723 42.5176 62.6434 42.6543C63.0145 42.791 63.2879 42.9473 63.4637 43.123C63.4734 43.1426 63.6346 43.3086 63.9471 43.6211C64.2596 43.9238 64.4305 44.0947 64.4598 44.1338C64.5184 44.2607 64.4744 44.3535 64.3279 44.4121C63.576 44.7148 62.9363 45.1348 62.409 45.6719C61.8914 46.1992 61.5301 46.7461 61.325 47.3125C61.1199 47.8789 61.0174 48.4453 61.0174 49.0117C61.0271 49.5684 61.1443 50.0566 61.3689 50.4766L61.6033 50.5938C62.7166 50.9551 63.7518 50.8135 64.7088 50.1689C65.6756 49.5244 66.3201 48.5137 66.6424 47.1367C67.033 45.5645 66.8133 44.207 65.9832 43.0645L65.8367 42.9766C65.5828 42.8008 65.2117 42.4932 64.7234 42.0537C64.2449 41.6045 63.9666 41.3311 63.8885 41.2334C63.0682 40.4619 62.5359 39.6172 62.2918 38.6992C62.0477 37.7715 62.1063 36.7949 62.4676 35.7695C62.7898 34.8906 63.3367 34.1582 64.1082 33.5723C64.8895 32.9863 65.7684 32.5908 66.7449 32.3857C67.7215 32.1807 68.7176 32.1611 69.7332 32.3271C70.7781 32.4639 71.5789 32.8594 72.1355 33.5137ZM81.6043 45.9062C81.6531 45.9453 81.8289 46.1113 82.1316 46.4043C82.4344 46.6973 82.6102 46.8828 82.659 46.9609C82.7078 47.0391 82.7176 47.1611 82.6883 47.3271C82.2 48.8506 81.409 50.1592 80.3152 51.2529C79.2312 52.3467 78.0594 52.8936 76.7996 52.8936C76.2137 52.8936 75.7156 52.7666 75.3055 52.5127C74.9051 52.2588 74.3436 51.707 73.6209 50.8574C72.6541 49.5 72.5857 47.3711 73.4158 44.4707C73.6404 43.6602 74.2996 41.8486 75.3934 39.0361C74.7684 38.4209 74.4559 38.1035 74.4559 38.084C74.3289 37.8789 74.3533 37.6152 74.5291 37.293C74.7049 36.9609 74.9539 36.7949 75.2762 36.7949H76.2283C76.3162 36.6094 76.4773 36.2188 76.7117 35.623C77.034 34.7441 77.3172 34.2119 77.5613 34.0264C77.8055 33.8311 78.3035 33.7334 79.0555 33.7334C79.4559 33.7334 79.7342 33.7725 79.8904 33.8506C79.9393 33.8799 80.1102 34.0459 80.4031 34.3486C80.6961 34.6416 80.867 34.8174 80.9158 34.876C81.0525 35.0615 81.0037 35.4912 80.7693 36.165L80.5203 36.7949H80.8865C80.9061 36.7949 80.9744 36.8242 81.0916 36.8828C81.7264 37.5176 82.0486 37.8447 82.0584 37.8643C82.1658 38.0596 82.1316 38.3135 81.9559 38.626C81.7898 38.9385 81.5603 39.0947 81.2674 39.0947H79.6561C78.1131 43.1865 77.1512 45.8379 76.7703 47.0488C76.3406 48.2988 76.2625 49.3291 76.5359 50.1396H76.6824C77.3855 50.1396 78.0594 49.7686 78.7039 49.0264C79.3484 48.2744 79.9051 47.3174 80.3738 46.1553C80.4422 45.96 80.618 45.8379 80.9012 45.7891C81.1844 45.7402 81.4187 45.7793 81.6043 45.9062ZM97.1814 41.4678C97.2303 41.4971 97.4012 41.6582 97.6941 41.9512C97.9871 42.2441 98.1629 42.4248 98.2215 42.4932C98.2898 42.6299 98.2996 42.7666 98.2508 42.9033C97.9871 43.8115 97.4012 44.6318 96.493 45.3643C95.5945 46.0869 94.491 46.5801 93.1824 46.8438C92.577 48.6504 91.7078 50.1104 90.575 51.2236C89.4422 52.3369 88.1238 52.8936 86.6199 52.8936C85.9949 52.8936 85.4236 52.7666 84.9061 52.5127C84.4471 52.2881 83.8367 51.7656 83.075 50.9453C82.3816 50.2812 81.952 49.4023 81.7859 48.3086C81.6102 47.2051 81.7615 45.8574 82.24 44.2656C82.4549 43.709 82.7186 43.3135 83.0311 43.0791C83.3436 42.835 83.7879 42.6885 84.3641 42.6396C84.198 42.1514 84.1004 41.6924 84.0711 41.2627C84.0418 40.6572 84.198 40.042 84.5398 39.417C84.8914 38.7822 85.3455 38.2305 85.9021 37.7617C86.4588 37.293 87.1033 36.9463 87.8357 36.7217C88.5779 36.4971 89.2908 36.4678 89.9744 36.6338C90.8533 36.8193 91.6639 37.4102 92.4061 38.4062C92.992 38.9922 93.3973 39.7881 93.6219 40.7939C93.8562 41.79 93.9197 42.8447 93.8123 43.958C94.8572 43.4795 95.5701 42.7422 95.951 41.7461C96.0389 41.5605 96.2195 41.4434 96.493 41.3945C96.7762 41.3359 97.0057 41.3604 97.1814 41.4678ZM89.7107 38.7139C89.1834 38.6064 88.6853 38.8701 88.2166 39.5049C87.7576 40.1396 87.5623 40.8525 87.6307 41.6436C87.7381 42.4639 88.0115 43.1768 88.451 43.7822C88.8416 44.0557 89.2615 44.2461 89.7107 44.3535C89.7498 44.2266 89.7889 43.9971 89.8279 43.665C90.2381 41.4971 90.199 39.8467 89.7107 38.7139ZM86.1072 45.2178C85.7654 46.2529 85.5701 47.2148 85.5213 48.1035C85.4822 48.9824 85.575 49.6514 85.7996 50.1104C85.8777 50.1299 85.9803 50.1396 86.1072 50.1396C86.6736 50.1396 87.2107 49.8271 87.7186 49.2021C88.2264 48.5771 88.6707 47.7422 89.0516 46.6973C87.8602 46.3457 86.908 45.7842 86.1951 45.0127L86.1072 45.2178ZM111.191 45.877C111.24 45.916 111.421 46.0869 111.733 46.3896C112.046 46.6924 112.226 46.8828 112.275 46.9609C112.334 47.0488 112.334 47.1709 112.275 47.3271C111.806 48.8506 111.054 50.1592 110.019 51.2529C108.984 52.3467 107.886 52.8936 106.723 52.8936C106.382 52.8936 106.045 52.8105 105.713 52.6445C105.381 52.4883 105.112 52.3223 104.907 52.1465C104.712 51.9805 104.448 51.7314 104.116 51.3994C103.296 50.5791 102.925 49.5293 103.003 48.25C103.081 46.9023 103.511 45.0615 104.292 42.7275C104.809 41.2627 105.141 40.2617 105.288 39.7246C104.692 40.0078 103.974 40.5498 103.135 41.3506C102.295 42.1416 101.46 43.1426 100.63 44.3535C99.1746 48.3965 98.3641 50.6133 98.198 51.0039C97.866 51.9023 97.5877 52.4395 97.3631 52.6152C97.1482 52.8008 96.6453 52.8936 95.8543 52.8936C95.5613 52.8936 95.3514 52.8545 95.2244 52.7764C95.1561 52.7373 94.9754 52.5615 94.6824 52.249C94.3797 51.9463 94.2137 51.7656 94.1844 51.707C93.9891 51.3848 94.0867 50.6426 94.4773 49.4805C94.7703 48.6602 95.3953 46.9219 96.3523 44.2656C97.3191 41.6094 97.993 39.7393 98.3738 38.6553C98.5203 38.2451 98.6375 37.9521 98.7254 37.7764C98.8133 37.5908 98.9109 37.415 99.0184 37.249C99.1258 37.083 99.2723 36.9805 99.4578 36.9414C99.6434 36.8926 99.8436 36.8584 100.058 36.8389C100.273 36.8096 100.596 36.7949 101.025 36.7949C101.445 36.7949 101.704 36.8535 101.802 36.9707L102.607 37.8057C102.744 37.9424 102.773 38.1621 102.695 38.4648C103.398 37.9375 104.077 37.5225 104.731 37.2197C105.386 36.917 105.918 36.7656 106.328 36.7656C106.855 36.7656 107.256 36.873 107.529 37.0879C107.588 37.127 107.949 37.4785 108.613 38.1426C108.974 38.6211 109.067 39.4121 108.891 40.5156C108.716 41.6094 108.262 43.2256 107.529 45.3643C106.846 47.3857 106.504 48.7578 106.504 49.4805C106.504 49.7148 106.538 49.9346 106.606 50.1396C107.221 50.1396 107.817 49.7686 108.393 49.0264C108.979 48.2842 109.502 47.3271 109.961 46.1553C110.049 45.96 110.224 45.8379 110.488 45.7891C110.762 45.7402 110.996 45.7695 111.191 45.877ZM123.15 45.877C123.228 45.916 123.59 46.2578 124.234 46.9023C124.332 47.0293 124.351 47.1807 124.293 47.3564C123.775 48.9775 122.887 50.3057 121.627 51.3408C120.367 52.376 118.912 52.8936 117.262 52.8936C116.217 52.8936 115.289 52.6348 114.478 52.1172C114.078 51.873 113.555 51.4141 112.911 50.7402C112.413 50.2812 112.027 49.7393 111.754 49.1143C111.49 48.4795 111.358 47.7227 111.358 46.8438C111.348 45.9551 111.51 45.0029 111.842 43.9873C112.213 42.8545 112.691 41.8047 113.277 40.8379C113.873 39.8613 114.517 39.041 115.211 38.377C115.904 37.7129 116.646 37.249 117.437 36.9854C118.228 36.7119 118.99 36.707 119.722 36.9707C120.504 37.3027 121.226 37.9229 121.89 38.8311C122.281 39.3486 122.525 39.9688 122.623 40.6914C122.73 41.4141 122.667 42.1221 122.432 42.8154C121.993 44.2021 121.09 45.3398 119.722 46.2285C118.365 47.1074 116.886 47.6104 115.284 47.7373C115.313 48.6064 115.494 49.3193 115.826 49.876C116.168 50.0518 116.549 50.1396 116.969 50.1396C118.101 50.1396 119.088 49.7881 119.928 49.085C120.777 48.3818 121.451 47.4053 121.949 46.1553C122.037 45.96 122.208 45.8379 122.462 45.7891C122.725 45.7402 122.955 45.7695 123.15 45.877ZM118.8 41.4971C119.102 40.6768 119.254 40.0176 119.254 39.5195C118.638 39.6855 118.009 40.2617 117.364 41.248C116.72 42.2344 116.168 43.4697 115.709 44.9541L115.592 45.3936C116.236 45.0811 116.851 44.583 117.437 43.8994C118.033 43.2061 118.487 42.4053 118.8 41.4971Z" fill="white"/>
</g>
<defs>
<filter id="filter0_d_1035_884" x="0.941406" y="32.0781" width="127.439" height="33.6641" filterUnits="userSpaceOnUse" color-interpolation-filters="sRGB">
<feFlood flood-opacity="0" result="BackgroundImageFix"/>
<feColorMatrix in="SourceAlpha" type="matrix" values="0 0 0 0 0 0 0 0 0 0 0 0 0 0 0 0 0 0 127 0" result="hardAlpha"/>
<feOffset dy="4"/>
<feGaussianBlur stdDeviation="2"/>
<feComposite in2="hardAlpha" operator="out"/>
<feColorMatrix type="matrix" values="0 0 0 0 0 0 0 0 0 0 0 0 0 0 0 0 0 0 0.25 0"/>
<feBlend mode="normal" in2="BackgroundImageFix" result="effect1_dropShadow_1035_884"/>
<feBlend mode="normal" in="SourceGraphic" in2="effect1_dropShadow_1035_884" result="shape"/>
</filter>
</defs>
</svg>
